<?xml version="1.0" encoding="utf-8"?>
<!-- Generator: Adobe Illustrator 23.0.0, SVG Export Plug-In . SVG Version: 6.00 Build 0)  -->
<svg version="1.1" id="Layer_1" xmlns="http://www.w3.org/2000/svg" xmlns:xlink="http://www.w3.org/1999/xlink" x="0px" y="0px"
	 viewBox="0 0 280 768" style="enable-background:new 0 0 280 768;" xml:space="preserve">
<style type="text/css">
	.st0{fill:#FFFFFF;}
	.st1{enable-background:new    ;}
	.st2{fill:#C1272D;}
	.st3{font-family:'Academy';}
	.st4{font-size:32.7965px;}
</style>
<symbol  id="Go_to_Web" viewBox="-32 -33.9 64 67.8">
	<polygon class="st0" points="5.4,3.7 5.4,-30.4 14.2,-21.6 20.6,-33.9 25.2,-31.5 19.1,-19.7 30.9,-19.7 	"/>
	<path class="st0" d="M31.5-3.6c0.1,0.3,0.1,0.6,0.1,1c0,0.2,0,0.3,0.1,0.5c0,0.3,0.1,0.6,0.1,0.9c0,0.2,0,0.5,0.1,0.7
		c0,0.3,0,0.5,0,0.8c0,0.5,0,1,0,1.6c0,0.5,0,1,0,1.5c0,0.3,0,0.6-0.1,0.9c0,0.2,0,0.3,0,0.5c0,0.4-0.1,0.8-0.1,1.2
		c0,0.1,0,0.1,0,0.2c-0.1,0.4-0.1,0.8-0.2,1.3c0,0,0,0.1,0,0.1l0,0C29,21.6,17.3,32.5,2.9,33.8c0,0,0,0-0.1,0
		c-0.4,0-0.9,0.1-1.3,0.1c-0.5,0-1,0-1.5,0s-1,0-1.5,0c-0.5,0-0.9,0-1.3-0.1c0,0,0,0-0.1,0C-17.3,32.5-29,21.6-31.5,7.6l0,0
		c0,0,0-0.1,0-0.1c-0.1-0.4-0.1-0.8-0.2-1.3c0-0.1,0-0.1,0-0.2c0-0.4-0.1-0.8-0.1-1.2c0-0.2,0-0.3,0-0.5c0-0.3,0-0.6-0.1-1
		c0-0.5,0-1,0-1.5c0-0.5,0-1,0-1.5c0-0.3,0-0.7,0.1-1c0-0.1,0-0.3,0-0.4c0-0.4,0.1-0.8,0.1-1.2c0,0,0-0.1,0-0.1
		c0.1-0.5,0.1-0.9,0.2-1.3c0,0,0,0,0,0l0,0c2.4-13.1,12.7-23.4,25.8-25.8c0,0,0,0,0,0c0.1,0,0.2,0,0.3,0c0.3,0,0.6-0.1,0.9-0.1
		c0.2,0,0.4,0,0.6-0.1c0.3,0,0.6-0.1,0.8-0.1c0.3,0,0.5,0,0.8-0.1c0.2,0,0.4,0,0.7,0c0.5,0,1,0,1.5,0c0,0,0.1,0,0.1,0v0.3v7.2
		c0,0-0.1,0-0.1,0c-1.4,0-2.8,0.1-4.2,0.4c-1.1,3.2-2,7.5-2.6,12.7C-4.6-9.7-2.3-9.8,0-9.8c0,0,0.1,0,0.1,0v4.3c0,0-0.1,0-0.1,0
		c-2.5,0-5,0.1-7.2,0.2c-0.2,2.3-0.2,4.7-0.2,7.2c0,2.6,0.1,5,0.2,7.2C-5,9.3-2.5,9.3,0,9.3s4.9-0.1,7.2-0.2c0-0.1,0-0.3,0-0.4
		C7.9,8.5,8.5,8.1,9,7.6l2.6-2.4c0,1.2-0.1,2.3-0.2,3.5c5.2-0.6,9.5-1.6,12.7-2.6c0.2-1.4,0.4-2.8,0.4-4.2s-0.1-2.8-0.4-4.2
		c-1-0.3-2.1-0.6-3.3-1l2.5-2.3l0,0l5.9-5.4c1,2.3,1.7,4.7,2.2,7.2c0,0,0,0,0,0C31.5-3.7,31.5-3.7,31.5-3.6z M-9.1,24.7
		c-0.9-3.4-1.6-7.4-2.1-11.7c-4.3-0.4-8.3-1.2-11.7-2.1C-20.3,17.2-15.3,22.2-9.1,24.7z M-9.1-20.9c-6.3,2.5-11.3,7.5-13.8,13.8
		c3.4-0.9,7.4-1.6,11.7-2.1C-10.7-13.5-10-17.5-9.1-20.9z M-11.5-4.9c-5.2,0.6-9.5,1.6-12.7,2.6c-0.2,1.4-0.4,2.8-0.4,4.2
		s0.1,2.8,0.4,4.2c3.2,1,7.5,2,12.7,2.6c-0.1-2.2-0.2-4.5-0.2-6.8C-11.7-0.4-11.6-2.7-11.5-4.9z M0,13.6c-2.3,0-4.6-0.1-6.8-0.2
		c0.6,5.2,1.6,9.5,2.6,12.7c1.4,0.2,2.8,0.4,4.2,0.4s2.8-0.1,4.2-0.4c1.1-3.2,2-7.4,2.6-12.7C4.6,13.5,2.3,13.6,0,13.6z M11.1,13
		c-0.4,4.3-1.2,8.3-2.1,11.7c6.3-2.5,11.3-7.5,13.8-13.8C19.4,11.9,15.4,12.6,11.1,13z"/>
</symbol>
<g>
	<g class="st1">
		<path class="st2" d="M123.8,372.2h0.1l6.1-14.8h4.7v0.9c-0.6,0.1-1,0.3-1.2,0.6c-0.2,0.4-0.3,0.8-0.3,1.5v12.2
			c0,0.7,0.1,1.2,0.4,1.5c0.3,0.3,0.6,0.5,0.9,0.5c0,0,0,0,0.1,0s0.1,0,0.1,0v0.9h-5.3v-0.9c0.1,0,0.1,0,0.2,0c0.1,0,0.2,0,0.2-0.1
			c0.3-0.1,0.5-0.3,0.7-0.6c0.2-0.3,0.3-0.8,0.3-1.4v-14.2h-0.1l-7.2,17.4h-0.9l-6.8-17.4h-0.1v14.3c0,0.6,0.1,1.1,0.3,1.4
			c0.2,0.3,0.5,0.5,0.8,0.6c0.1,0,0.2,0,0.2,0.1c0.1,0,0.2,0,0.2,0v0.9h-4.1v-0.9c0.6-0.1,0.9-0.3,1.1-0.5c0.2-0.3,0.3-0.6,0.4-1
			c0-0.1,0-0.2,0-0.3s0-0.2,0-0.3v-12.8c0-0.5-0.1-0.9-0.4-1.1c-0.3-0.3-0.7-0.4-1.1-0.4v-0.9h4.7L123.8,372.2z"/>
		<path class="st2" d="M143.6,375.2c-0.7,0.4-1.4,0.6-2.2,0.6c-0.2,0-0.4,0-0.5,0c-0.2,0-0.4,0-0.5-0.1c-0.9-0.2-1.7-0.6-2.5-1.3
			c-0.7-0.7-1.1-1.9-1.1-3.4c0-1.8,0.5-3.2,1.4-4.2c0.9-0.9,2-1.4,3.2-1.4c1.3,0,2.2,0.5,2.9,1.4c0.7,0.9,1,1.9,1,3.1h-6.2
			c0,0.1,0,0.1,0,0.1c0,0,0,0.1,0,0.1c-0.1,1.2,0.1,2.2,0.4,3.2c0.3,1,1.1,1.5,2.4,1.5c0.6,0,1.2-0.2,1.8-0.5
			c0.6-0.3,1.1-0.7,1.5-1.1l0.5,0.4C144.9,374.3,144.3,374.8,143.6,375.2z M143.1,368.5c0-0.2,0-0.4-0.1-0.7
			c-0.1-0.4-0.3-0.7-0.5-1.1c-0.3-0.3-0.7-0.5-1.2-0.5c-0.1,0-0.2,0-0.3,0c-0.1,0-0.2,0-0.3,0.1c-0.4,0.1-0.8,0.4-1.1,0.8
			c-0.3,0.4-0.5,1.1-0.5,2h4.1C143.1,368.9,143.1,368.7,143.1,368.5z"/>
		<path class="st2" d="M156.8,373.5c0,0.4,0.1,0.7,0.3,1c0.2,0.2,0.5,0.4,0.8,0.4l0,0.8h-3v-0.9h-0.2c-0.5,0.4-0.9,0.6-1.3,0.8
			c-0.4,0.1-0.8,0.2-1.2,0.2c-0.1,0-0.1,0-0.2,0c-0.1,0-0.1,0-0.2,0c-1.3,0-2.5-0.4-3.6-1.2c-1.1-0.8-1.6-2.1-1.6-3.8
			c0-1.7,0.4-2.9,1.2-3.7c0.8-0.8,1.7-1.3,2.7-1.5c0.3-0.1,0.5-0.1,0.8-0.1c0.3,0,0.5,0,0.8,0c0.4,0,0.7,0,1,0.1
			c0.3,0.1,0.6,0.2,0.8,0.3c0.2,0.1,0.3,0.2,0.4,0.2c0.1,0.1,0.2,0.1,0.3,0.2h0.2v-6.9c0-0.3-0.1-0.6-0.2-0.8
			c-0.1-0.2-0.3-0.3-0.4-0.4c-0.1-0.1-0.1-0.1-0.2-0.1c-0.1,0-0.1,0-0.2-0.1v-0.8h2.9V373.5z M154.3,366.9c-0.3-0.2-0.5-0.4-0.8-0.5
			c-0.2-0.1-0.4-0.1-0.6-0.1c-0.2,0-0.4,0-0.5,0c-0.1,0-0.4,0-0.7,0.1c-0.3,0-0.6,0.2-1,0.4c-0.4,0.2-0.8,0.7-1.2,1.3
			c-0.4,0.6-0.6,1.5-0.6,2.7c0,1.6,0.3,2.7,0.9,3.4c0.6,0.7,1.3,1,2.1,1c0.1,0,0.2,0,0.4,0c0.1,0,0.2,0,0.4-0.1
			c0.5-0.1,1-0.4,1.4-0.7c0.4-0.3,0.7-0.8,0.8-1.2v-5.3C154.8,367.4,154.6,367.1,154.3,366.9z"/>
		<path class="st2" d="M168.9,374.9c-0.2,0.3-0.4,0.5-0.7,0.7c-0.3,0.2-0.6,0.2-1,0.2c-0.5,0-0.8-0.1-1.1-0.4
			c-0.3-0.3-0.5-0.6-0.6-1h-0.1c-0.1,0.1-0.1,0.1-0.2,0.2c-0.1,0.1-0.1,0.1-0.2,0.2c-0.5,0.5-1,0.7-1.5,0.8
			c-0.5,0.1-0.9,0.2-1.2,0.2c-1.1,0-1.9-0.3-2.3-0.8c-0.5-0.6-0.7-1.2-0.7-1.9c0-1.4,0.6-2.3,1.8-2.8c1.2-0.5,2.6-0.8,4-0.9
			c0,0,0,0,0,0c0,0,0,0,0,0c0-0.8-0.1-1.6-0.3-2.2c-0.2-0.7-0.7-1-1.6-1c-0.3,0-0.6,0.1-0.8,0.2s-0.3,0.3-0.4,0.5
			c-0.1,0.1-0.1,0.2-0.1,0.2s0,0.2-0.1,0.2c0,0,0,0.1-0.1,0.2c0,0.1,0,0.1-0.1,0.2c-0.1,0.1-0.2,0.2-0.3,0.3
			c-0.1,0.1-0.3,0.1-0.5,0.1c0,0-0.1,0-0.1,0c0,0-0.1,0-0.1,0c-0.1,0-0.3-0.1-0.4-0.2c-0.1-0.1-0.2-0.3-0.2-0.5c0,0,0,0,0-0.1
			c0,0,0,0,0-0.1c0.1-0.5,0.4-0.9,1-1.3s1.4-0.6,2.3-0.6c1.2,0,2.1,0.3,2.6,0.8c0.5,0.6,0.8,1.2,0.9,1.8c0.1,0.3,0.1,0.6,0.1,0.9
			c0,0.3,0,0.6,0,0.8c0,0,0,0,0,0.1v3.3c0,0.6,0.1,1.1,0.3,1.3c0.2,0.2,0.4,0.3,0.7,0.3c0,0,0.1,0,0.1,0s0.1,0,0.1,0
			c0.1,0,0.1,0,0.2,0c0.1,0,0.1,0,0.2-0.1L168.9,374.9z M162.3,371.1c-0.6,0.5-0.9,1.1-1,1.7c0,0,0,0.1,0,0.1s0,0.1,0,0.1
			c0,0.5,0.2,0.9,0.5,1.2c0.3,0.3,0.8,0.5,1.3,0.5c0.9,0,1.5-0.4,1.7-1.1c0.2-0.7,0.3-1.5,0.3-2.5v-0.9
			C163.9,370.3,162.9,370.6,162.3,371.1z"/>
		<path class="st2" d="M172.8,357.4V373c0,0.5,0.1,1,0.2,1.3s0.5,0.5,1,0.6v0.8h-4.2v-0.8c0.5-0.1,0.8-0.3,1-0.6s0.2-0.7,0.2-1.3
			v-13c0-0.6-0.1-1-0.2-1.3c-0.1-0.3-0.4-0.5-1-0.6v-0.8H172.8z"/>
		<path class="st2" d="M184.9,374.9c-0.2,0.3-0.4,0.5-0.7,0.7c-0.3,0.2-0.6,0.2-1,0.2c-0.5,0-0.8-0.1-1.1-0.4
			c-0.3-0.3-0.5-0.6-0.6-1h-0.1c-0.1,0.1-0.1,0.1-0.2,0.2s-0.1,0.1-0.2,0.2c-0.5,0.5-1,0.7-1.5,0.8c-0.5,0.1-0.9,0.2-1.2,0.2
			c-1.1,0-1.9-0.3-2.3-0.8c-0.5-0.6-0.7-1.2-0.7-1.9c0-1.4,0.6-2.3,1.8-2.8c1.2-0.5,2.6-0.8,4-0.9c0,0,0,0,0,0s0,0,0,0
			c0-0.8-0.1-1.6-0.3-2.2c-0.2-0.7-0.7-1-1.6-1c-0.3,0-0.6,0.1-0.8,0.2c-0.2,0.1-0.3,0.3-0.4,0.5c-0.1,0.1-0.1,0.2-0.1,0.2
			c0,0.1,0,0.2-0.1,0.2c0,0,0,0.1-0.1,0.2c0,0.1,0,0.1-0.1,0.2c-0.1,0.1-0.2,0.2-0.3,0.3c-0.1,0.1-0.3,0.1-0.5,0.1c0,0-0.1,0-0.1,0
			c0,0-0.1,0-0.1,0c-0.1,0-0.3-0.1-0.4-0.2c-0.1-0.1-0.2-0.3-0.2-0.5c0,0,0,0,0-0.1c0,0,0,0,0-0.1c0.1-0.5,0.4-0.9,1-1.3
			s1.4-0.6,2.3-0.6c1.2,0,2.1,0.3,2.6,0.8c0.5,0.6,0.8,1.2,0.9,1.8c0.1,0.3,0.1,0.6,0.1,0.9c0,0.3,0,0.6,0,0.8c0,0,0,0,0,0.1v3.3
			c0,0.6,0.1,1.1,0.3,1.3c0.2,0.2,0.4,0.3,0.7,0.3c0,0,0.1,0,0.1,0c0,0,0.1,0,0.1,0c0.1,0,0.1,0,0.2,0c0.1,0,0.1,0,0.2-0.1
			L184.9,374.9z M178.3,371.1c-0.6,0.5-0.9,1.1-1,1.7c0,0,0,0.1,0,0.1s0,0.1,0,0.1c0,0.5,0.2,0.9,0.5,1.2c0.3,0.3,0.8,0.5,1.3,0.5
			c0.9,0,1.5-0.4,1.7-1.1c0.2-0.7,0.3-1.5,0.3-2.5v-0.9C179.8,370.3,178.9,370.6,178.3,371.1z"/>
	</g>
	<g class="st1">
		<path d="M209.2,360.3c-0.2,0-0.4,0.1-0.8,0.3c-0.4,0.2-0.8,0.8-1.2,1.8l-6.3,14.4h-0.7l-3.2-7.8H197l-3.3,7.8H193l-6.1-14.8
			c0,0,0-0.1,0-0.1c0,0,0-0.1,0-0.1c-0.2-0.4-0.4-0.7-0.7-1c-0.3-0.3-0.7-0.5-1.3-0.5v-0.8h5.5v0.8c-0.1,0-0.1,0-0.2,0
			c-0.1,0-0.1,0-0.2,0c-0.2,0-0.4,0.1-0.5,0.3c-0.2,0.1-0.2,0.4-0.2,0.6c0,0.1,0,0.3,0.1,0.5c0.1,0.2,0.1,0.4,0.3,0.7l4.6,11.1h0.1
			l2.5-5.9l-2.5-5.9c-0.2-0.4-0.4-0.8-0.7-1c-0.3-0.2-0.6-0.4-1-0.4v-0.8h9.5v0.8c-0.4,0-0.7,0.2-1,0.5c-0.3,0.3-0.6,0.7-0.9,1.3
			c0,0.1-0.1,0.1-0.1,0.2c0,0.1-0.1,0.1-0.1,0.2l-1.6,3.7l3.1,7.4h0l4.6-10.8c0,0,0-0.1,0.1-0.2c0-0.1,0.1-0.1,0.1-0.2
			c0,0,0-0.1,0-0.2c0-0.1,0-0.1,0-0.2c0-0.1,0.1-0.3,0.1-0.4c0-0.1,0-0.2,0-0.3c0-0.3-0.1-0.6-0.3-0.8s-0.5-0.3-0.9-0.3c0,0,0,0,0,0
			s0,0-0.1,0v-0.8h4.1V360.3z M199,361.9c0.1-0.2,0.1-0.3,0.2-0.5c0-0.1,0-0.3,0-0.4c0-0.2-0.1-0.4-0.2-0.5
			c-0.1-0.1-0.3-0.2-0.4-0.2c0,0-0.1,0-0.2,0c-0.1,0-0.1,0-0.2,0h-0.5c-0.4,0-0.7,0-1,0.1c-0.3,0.1-0.5,0.3-0.5,0.7
			c0,0.1,0,0.3,0.1,0.4s0.1,0.2,0.1,0.3c0,0,0.1,0.1,0.1,0.1c0,0,0,0.1,0,0.1l1.1,2.7h0.1L199,361.9z"/>
		<path d="M216.3,376.3c-0.7,0.4-1.4,0.6-2.1,0.6c-0.2,0-0.3,0-0.5,0c-0.2,0-0.4,0-0.5-0.1c-0.9-0.2-1.6-0.6-2.3-1.3
			c-0.7-0.7-1-1.8-1-3.2c0-1.7,0.4-3,1.3-3.9c0.9-0.9,1.9-1.3,3-1.3c1.2,0,2.1,0.4,2.7,1.3c0.6,0.9,0.9,1.8,0.9,2.9h-5.9
			c0,0,0,0.1,0,0.1c0,0,0,0.1,0,0.1c0,1.1,0.1,2.1,0.4,3c0.3,0.9,1.1,1.4,2.3,1.4c0.6,0,1.1-0.2,1.7-0.5c0.5-0.3,1-0.7,1.4-1
			l0.4,0.4C217.6,375.4,217,375.9,216.3,376.3z M215.9,370c0-0.2,0-0.4-0.1-0.7c-0.1-0.4-0.3-0.7-0.5-1c-0.3-0.3-0.7-0.5-1.2-0.5
			c-0.1,0-0.2,0-0.2,0c-0.1,0-0.2,0-0.3,0.1c-0.4,0.1-0.7,0.3-1,0.7c-0.3,0.4-0.5,1-0.5,1.9h3.9C215.9,370.3,215.9,370.2,215.9,370z
			"/>
		<path d="M222.4,368c0.4-0.3,0.8-0.5,1.2-0.7s1.1-0.3,1.8-0.3c1.5,0,2.7,0.5,3.4,1.4c0.8,0.9,1.2,2,1.2,3.3c0,1.4-0.4,2.6-1.3,3.6
			c-0.9,1-2.1,1.5-3.7,1.5c-0.4,0-0.8-0.1-1.2-0.2c-0.4-0.1-0.7-0.2-0.9-0.4c-0.2-0.1-0.4-0.2-0.5-0.3c-0.1-0.1-0.2-0.2-0.3-0.2
			l-1.1,1.1h-0.3v-15.4c0-0.3-0.1-0.6-0.3-0.8c-0.2-0.2-0.5-0.4-0.8-0.4v-0.7h2.9V368z M222.4,373.1c0,0.1,0,0.1,0,0.2
			c0,0.1,0,0.2,0,0.3c0,0,0,0.1,0,0.1c0,0,0,0.1,0,0.1c0,0.7,0.3,1.3,0.8,1.6c0.5,0.4,0.9,0.6,1.5,0.6c0,0,0,0,0.1,0
			c0,0,0.1,0,0.1,0c1.2,0,2-0.4,2.5-1.2c0.5-0.8,0.7-1.9,0.7-3.1c0-0.2,0-0.3,0-0.5c0-0.2,0-0.3,0-0.5c-0.1-0.7-0.4-1.4-0.8-2
			c-0.4-0.6-1.2-0.9-2.2-0.9c-0.5,0-0.9,0.1-1.2,0.2c-0.3,0.1-0.6,0.3-0.8,0.4c-0.1,0.1-0.2,0.2-0.3,0.2c-0.1,0.1-0.2,0.1-0.2,0.2
			V373.1z"/>
	</g>
	<g>
		<g>
			<path class="st2" d="M190.3,383.5l-3.6,2.5c-1.7,1.2-2.7,3.2-2.6,5.3l0.3,4.4c0.1,2.1,1.4,3.9,3.3,4.9l3.9,1.9
				c1.9,0.9,4.1,0.8,5.8-0.4l3.6-2.5c1.7-1.2,2.7-3.2,2.6-5.3l-0.3-4.4c-0.1-2.1-1.4-3.9-3.3-4.9l-3.9-1.9
				C194.3,382.2,192,382.4,190.3,383.5z"/>
		</g>
		
			<use xlink:href="#Go_to_Web"  width="64" height="67.8" id="XMLID_1_" x="-32" y="-33.9" transform="matrix(0.2504 0 0 -0.2415 193.8864 393.415)" style="overflow:visible;"/>
	</g>
	<g>
		<g>
			<path class="st2" d="M65.9,401.1l-3.1-1.7c-0.8-0.4-1.6-1-2.3-1.5c0.7-2.6,1.5-6.2,1.8-10.1C62.3,387.7,63.9,394.8,65.9,401.1z"
				/>
		</g>
		<g>
			<path class="st2" d="M84.5,405.7c0,0,0,0.4-0.1,1.3c-2.8,0.6-5.7,0.4-8.4-0.6c0.9-1.3,1.6-3.4,2.2-6.4c0,0,5.1-23,5.1-26.6
				C83.2,373.3,87.1,389.3,84.5,405.7z"/>
		</g>
		<g>
			<path class="st2" d="M99.9,398.7l-8.3,5c0.3-10,0.4-27.7-1.5-31.3c0,0-2.7-9.8-8.8-7c-6.1,2.9-9.4,31.8-9.4,31.8
				s-2.7-19.7-7.4-21.9c0,0-6.3-5.3-9.5,13.9c-0.2-1-0.3-2-0.4-3.1l-0.2-12.5c-0.1-5.5,2.8-10.7,7.5-13.6l10.7-6.4
				c4.8-2.9,10.7-3,15.5-0.3l10.9,6.1c4.8,2.7,7.9,7.8,8,13.3l0.2,12.5C107.5,390.6,104.7,395.8,99.9,398.7z"/>
		</g>
	</g>
	<g class="st1">
		<path d="M127.3,384l-1.3,0c-0.3-0.9-0.7-1.6-1.1-2.2s-0.8-1.1-1.2-1.4c-0.7-0.6-1.4-1-2-1.1c-0.6-0.1-1.1-0.2-1.4-0.2
			c-1.3,0-2.4,0.4-3.1,1.1c-0.7,0.7-1.1,1.6-1.1,2.6c0,1,0.3,1.9,1,2.5c0.7,0.6,1.4,1,2.3,1.3c0.4,0.1,0.7,0.2,1,0.3
			c0.3,0.1,0.7,0.2,0.9,0.3c0.4,0.1,0.8,0.2,1.3,0.4s1,0.4,1.5,0.6c1.1,0.5,2,1.2,2.9,2.2s1.3,2.2,1.3,3.9c0,0.1,0,0.1,0,0.2
			c0,0.1,0,0.2,0,0.2c-0.1,1.6-0.8,3.1-2,4.5c-1.2,1.4-2.8,2-4.8,2.1c-0.4,0-0.9,0-1.6-0.1c-0.7-0.1-1.5-0.3-2.4-0.5
			c-0.2,0-0.3-0.1-0.5-0.1c-0.2-0.1-0.3-0.1-0.4-0.1c-0.2,0-0.3-0.1-0.5-0.1c-0.2,0-0.3,0-0.5,0c0,0-0.1,0-0.1,0c0,0-0.1,0-0.1,0
			c-0.2,0-0.5,0.1-0.7,0.2c-0.2,0.1-0.4,0.3-0.5,0.6l-1.1,0l0-7.1l1.1,0c0.5,1.7,1.4,3.1,2.8,4.3c1.4,1.1,2.8,1.7,4.4,1.8
			c0,0,0.1,0,0.1,0c0,0,0.1,0,0.1,0c1.2,0,2.3-0.4,3-1.3c0.8-0.9,1.2-1.9,1.3-2.9c0,0,0-0.1,0-0.1c0,0,0-0.1,0-0.1
			c0-1.2-0.4-2.1-1.1-2.8c-0.7-0.7-1.5-1.2-2.4-1.6c-0.4-0.2-0.8-0.3-1.2-0.4c-0.4-0.1-0.7-0.2-1-0.3c-0.4-0.1-0.7-0.2-1.1-0.3
			c-0.4-0.1-0.8-0.3-1.3-0.5c-1-0.5-2-1.1-2.8-2c-0.9-0.9-1.3-2.1-1.3-3.8c0-1.6,0.6-2.9,1.7-4.1c1.2-1.2,2.8-1.8,4.9-1.8
			c0.2,0,0.3,0,0.5,0s0.3,0,0.5,0c0.5,0.1,1,0.2,1.4,0.4c0.5,0.2,1,0.4,1.6,0.7c0,0,0.1,0,0.1,0.1s0.1,0,0.1,0.1
			c0.1,0.1,0.2,0.1,0.4,0.2c0.1,0,0.3,0.1,0.4,0.1c0.1,0,0.2,0,0.3-0.1c0.1,0,0.2-0.1,0.2-0.2c0,0,0.1,0,0.1-0.1c0,0,0-0.1,0.1-0.1
			c0,0,0,0,0.1-0.1l0.8,0L127.3,384z"/>
		<path d="M140.8,389.5c1,1,1.6,2.1,1.9,3.3c0.1,0.3,0.2,0.6,0.2,0.9c0,0.3,0.1,0.6,0.1,0.9c0,1.8-0.4,3.2-1.2,4.1
			c-0.8,1-1.8,1.7-2.8,2c-0.4,0.1-0.7,0.2-1.1,0.3c-0.4,0.1-0.7,0.1-1,0.1c-0.3,0-0.7,0-1-0.1c-0.4-0.1-0.7-0.2-1.1-0.3
			c-1-0.4-2-1-2.8-2s-1.3-2.4-1.3-4.1c0-0.3,0-0.6,0-0.9c0-0.3,0.1-0.6,0.2-0.9c0.3-1.2,0.9-2.3,1.9-3.3c0.9-1,2.3-1.5,4.1-1.5
			C138.5,388.1,139.8,388.6,140.8,389.5z M134.2,390.1c-0.5,0.7-0.8,1.4-0.9,2.2c-0.1,0.4-0.1,0.9-0.1,1.3c0,0.4,0,0.8,0,1.1
			c0,0.3,0,0.6,0,0.9s0,0.7,0.1,1c0.1,0.9,0.4,1.7,0.9,2.5c0.5,0.8,1.3,1.1,2.5,1.1c1.2,0,2-0.4,2.5-1.1c0.5-0.8,0.8-1.6,0.9-2.5
			c0-0.3,0.1-0.7,0.1-1c0-0.3,0-0.7,0-0.9c0-0.3,0-0.7,0-1.1c0-0.4-0.1-0.8-0.2-1.3c-0.1-0.8-0.4-1.5-0.9-2.2c-0.5-0.7-1.3-1-2.4-1
			C135.5,389.1,134.7,389.4,134.2,390.1z"/>
		<path d="M148.4,378l0.1,19.6c0,0.7,0.1,1.2,0.3,1.7s0.6,0.7,1.2,0.7l0,1l-5.3,0l0-1c0.6-0.1,1-0.3,1.2-0.7
			c0.2-0.4,0.3-0.9,0.3-1.6l-0.1-16.3c0-0.7-0.1-1.2-0.2-1.6s-0.5-0.6-1.2-0.7l0-1L148.4,378z"/>
		<path d="M163.3,397.5c0,0.7,0.1,1.3,0.3,1.6c0.2,0.3,0.6,0.6,1.2,0.8l0,1l-3.9,0l0-1.6h-0.1c-0.2,0.3-0.5,0.5-0.8,0.7
			c-0.3,0.2-0.5,0.4-0.8,0.5c-0.5,0.3-1,0.4-1.5,0.5c-0.5,0.1-0.9,0.1-1.2,0.1c-1.1,0-1.9-0.2-2.3-0.7c-0.5-0.5-0.8-1-0.9-1.6
			c-0.1-0.3-0.1-0.6-0.1-0.9c0-0.3,0-0.6,0-0.8c0,0,0-0.1,0-0.1s0,0,0-0.1l0-6.1c0-0.5-0.1-0.9-0.3-1.2c-0.2-0.3-0.6-0.5-1.1-0.5
			l0-1l3.8,0l0,8.9c0,0.1,0,0.2,0,0.3c0,0.1,0,0.2,0,0.3c0,0.5,0.2,1,0.4,1.4c0.3,0.4,0.8,0.6,1.5,0.6c0.1,0,0.4-0.1,0.9-0.2
			s1-0.4,1.6-1c0.2-0.2,0.3-0.3,0.4-0.5s0.3-0.4,0.4-0.6l0-6.7c0,0,0-0.1,0-0.1c0,0,0-0.1,0-0.1c0-0.3-0.1-0.7-0.3-1
			c-0.2-0.3-0.6-0.5-1.1-0.5l0-1l3.8,0L163.3,397.5z"/>
		<path d="M167.7,388.2l0-2.9l2.4-1.3l0,4.2l2.7,0l0,1l-2.7,0l0,8.4c0,0.1,0,0.2,0,0.3s0,0.2,0.1,0.3c0,0.3,0.2,0.6,0.4,0.8
			c0.2,0.2,0.6,0.4,1.1,0.4c0.3,0,0.7-0.1,1-0.2c0.3-0.1,0.6-0.3,0.8-0.5l0.6,0.7c-0.1,0.1-0.2,0.2-0.3,0.3
			c-0.1,0.1-0.2,0.2-0.2,0.2c-0.6,0.5-1.2,0.9-1.8,1c-0.6,0.1-1,0.2-1.2,0.2c-0.9,0-1.7-0.2-2.2-0.7c-0.5-0.5-0.7-1.3-0.7-2.6l0-8.5
			l-1.4,0l0-1L167.7,388.2z"/>
		<path d="M179.1,388.2l0,9.3c0,0.7,0.1,1.2,0.3,1.7c0.2,0.4,0.6,0.7,1.2,0.7l0,1l-5.3,0l0-1c0.6-0.1,1-0.3,1.2-0.8
			c0.2-0.4,0.2-1,0.2-1.6l0-6c0-0.7-0.1-1.3-0.3-1.6c-0.2-0.4-0.6-0.6-1.2-0.8l0-1L179.1,388.2z M176.4,381.2
			c0.3-0.3,0.7-0.5,1.1-0.5c0.4,0,0.8,0.1,1.1,0.4c0.3,0.3,0.5,0.7,0.5,1.2c0,0.5-0.2,0.9-0.5,1.2c-0.3,0.3-0.7,0.4-1.1,0.4
			c-0.4,0-0.8-0.1-1.1-0.4c-0.3-0.3-0.5-0.6-0.5-0.9c0,0,0-0.1,0-0.1s0-0.1,0-0.1C175.9,381.9,176.1,381.5,176.4,381.2z"/>
	</g>
	<text transform="matrix(1 0 0 1 206.0273 401.0786)" class="st3 st4">ns</text>
</g>
</svg>
